{"glyphs":{" ":{"ha":833,"x_min":0,"x_max":0,"o":""},"D":{"ha":833,"x_min":60,"x_max":799,"o":"m 60 0 l 60 992 l 363 992 q 596 937 499 992 q 746 775 693 882 q 799 510 799 668 q 743 231 799 344 q 586 58 688 117 q 346 0 485 0 l 60 0 m 342 185 q 518 265 461 185 q 575 504 575 344 q 551 676 575 608 q 478 775 526 743 q 357 807 429 807 l 272 807 l 272 185 l 342 185 z "},"E":{"ha":833,"x_min":99,"x_max":743,"o":"m 99 0 l 99 992 l 743 992 l 743 801 l 313 801 l 313 607 l 724 607 l 724 418 l 313 418 l 313 190 l 743 190 l 743 0 l 99 0 z "},"H":{"ha":833,"x_min":60,"x_max":774,"o":"m 60 0 l 60 992 l 281 992 l 281 613 l 553 613 l 553 992 l 774 992 l 774 0 l 553 0 l 553 422 l 281 422 l 281 0 l 60 0 z "},"M":{"ha":833,"x_min":49,"x_max":783,"o":"m 49 0 l 49 992 l 340 992 l 413 429 l 417 429 l 499 992 l 783 992 l 783 0 l 590 0 l 590 225 q 593 306 590 256 q 599 415 596 356 q 607 534 603 474 q 615 648 611 594 q 622 739 619 701 q 625 789 625 776 l 618 789 l 522 226 l 311 226 l 210 790 l 201 790 q 206 738 203 775 q 213 646 208 700 q 222 531 218 592 q 231 412 226 471 q 238 302 236 353 q 240 218 240 251 l 240 0 l 49 0 z "},"S":{"ha":833,"x_min":90,"x_max":763,"o":"m 382 -14 q 234 1 306 -14 q 90 47 163 15 l 90 254 q 247 191 172 210 q 388 172 321 172 q 467 181 433 172 q 518 210 500 190 q 536 268 536 231 q 514 331 536 308 q 447 376 492 354 q 339 433 403 399 q 217 513 269 472 q 138 607 165 553 q 110 738 110 661 q 147 885 110 825 q 259 975 185 944 q 442 1006 333 1006 q 599 990 519 1006 q 751 939 679 974 l 682 765 q 559 808 615 796 q 458 819 503 819 q 392 810 419 819 q 349 780 364 800 q 335 726 335 760 q 352 672 335 693 q 409 628 369 650 q 517 571 449 606 q 644 497 589 535 q 731 408 700 460 q 763 276 763 356 q 740 158 763 211 q 670 67 717 106 q 552 7 624 28 q 382 -14 481 -14 z "},"T":{"ha":833,"x_min":35,"x_max":799,"o":"m 306 0 l 306 801 l 35 801 l 35 992 l 799 992 l 799 801 l 526 801 l 526 0 l 306 0 z "},"a":{"ha":833,"x_min":63,"x_max":750,"o":"m 313 -14 q 125 51 188 -14 q 63 224 63 117 q 101 365 63 311 q 209 444 139 418 q 376 474 279 471 l 540 479 l 540 508 q 506 579 540 556 q 400 603 472 603 q 298 592 354 603 q 183 557 242 581 l 114 708 q 259 760 183 743 q 415 776 335 776 q 666 711 582 776 q 750 514 750 646 l 750 0 l 583 0 l 554 94 l 549 94 q 472 26 513 50 q 390 -6 431 3 q 313 -14 349 -14 m 379 158 q 459 174 422 158 q 518 220 496 189 q 540 294 540 251 l 540 346 l 440 343 q 347 332 385 343 q 291 299 310 321 q 272 243 272 278 q 301 178 272 199 q 379 158 331 158 z "},"c":{"ha":833,"x_min":90,"x_max":729,"o":"m 463 -14 q 254 30 336 -14 q 131 160 172 74 q 90 372 90 246 q 132 591 90 501 q 258 728 174 681 q 472 776 343 776 q 601 764 535 776 q 729 724 668 751 l 664 556 q 561 587 604 579 q 486 594 518 594 q 389 571 428 594 q 330 500 350 547 q 310 382 310 453 q 332 259 310 307 q 395 190 354 211 q 492 168 436 168 q 588 181 533 168 q 703 235 643 194 l 703 42 q 584 -1 643 11 q 463 -14 525 -14 z "},"e":{"ha":833,"x_min":63,"x_max":769,"o":"m 478 -14 q 251 33 343 -14 q 110 168 158 79 q 63 383 63 257 q 104 592 63 503 q 228 728 146 681 q 426 776 310 776 q 613 733 536 776 q 729 609 689 689 q 769 418 769 529 l 769 315 l 274 315 q 307 230 276 264 q 388 178 338 196 q 500 161 439 161 q 620 175 558 161 q 744 218 682 189 l 744 40 q 610 -2 679 10 q 478 -14 540 -14 m 571 464 q 552 543 571 510 q 502 594 533 576 q 428 613 471 613 q 324 573 364 613 q 278 464 285 533 l 571 464 z "},"g":{"ha":833,"x_min":49,"x_max":764,"o":"m 354 -340 q 231 -331 296 -340 q 99 -296 167 -322 l 99 -101 q 238 -144 172 -131 q 363 -157 304 -158 q 501 -122 456 -157 q 547 -7 547 -86 l 547 6 q 549 51 547 29 q 550 93 550 72 l 544 93 q 453 10 506 33 q 338 -14 401 -14 q 125 90 201 -14 q 49 381 49 194 q 127 675 49 572 q 335 778 206 778 q 456 749 403 778 q 549 665 508 721 l 553 665 l 601 763 l 764 763 l 764 15 q 721 -179 764 -100 q 588 -299 678 -258 q 354 -340 497 -340 m 418 165 q 482 178 456 165 q 526 216 508 192 q 551 275 543 240 q 560 354 560 310 l 560 378 q 545 501 560 453 q 499 574 531 550 q 415 597 467 597 q 306 542 342 597 q 269 379 269 486 q 306 222 269 278 q 418 165 342 165 z "},"h":{"ha":833,"x_min":69,"x_max":771,"o":"m 69 0 l 69 1056 l 290 1056 l 290 865 q 288 765 290 815 q 282 665 285 715 l 294 665 q 349 728 319 703 q 417 765 378 753 q 508 776 457 776 q 704 703 638 776 q 771 496 771 629 l 771 0 l 550 0 l 550 432 q 521 558 550 519 q 431 597 492 597 q 352 573 383 597 q 306 494 321 549 q 290 347 290 439 l 290 0 l 69 0 z "},"i":{"ha":833,"x_min":71,"x_max":771,"o":"m 71 0 l 71 147 l 326 179 l 326 583 l 118 606 l 118 763 l 546 763 l 546 179 l 771 147 l 771 0 l 71 0 m 436 840 q 338 870 371 840 q 304 960 304 900 q 337 1048 304 1018 q 438 1078 369 1078 q 537 1048 504 1078 q 569 961 569 1018 q 537 872 569 904 q 436 840 504 840 z "},"k":{"ha":833,"x_min":71,"x_max":819,"o":"m 71 0 l 71 1056 l 292 1056 l 292 601 q 290 538 292 571 q 286 471 289 504 q 279 407 283 438 l 283 407 q 328 471 306 439 q 378 539 351 503 l 553 763 l 803 763 l 546 450 l 819 0 l 579 0 l 403 304 l 292 215 l 292 0 l 71 0 z "},"l":{"ha":833,"x_min":71,"x_max":771,"o":"m 71 0 l 71 146 l 325 179 l 325 876 l 122 907 l 122 1056 l 544 1056 l 544 179 l 771 146 l 771 0 l 71 0 z "},"n":{"ha":833,"x_min":69,"x_max":771,"o":"m 69 0 l 69 763 l 236 763 l 268 665 l 281 665 q 338 727 304 703 q 415 764 371 751 q 511 776 458 776 q 706 703 640 776 q 771 496 771 631 l 771 0 l 550 0 l 550 432 q 520 558 550 518 q 433 597 490 597 q 323 531 356 597 q 290 347 290 464 l 290 0 l 69 0 z "},"o":{"ha":833,"x_min":49,"x_max":785,"o":"m 419 -14 q 261 15 331 -14 q 144 95 192 43 q 73 220 97 147 q 49 383 49 293 q 91 589 49 500 q 215 727 133 678 q 414 776 297 776 q 613 728 529 776 q 740 591 696 681 q 785 376 785 501 q 761 218 785 290 q 692 94 738 146 q 578 15 646 43 q 419 -14 510 -14 m 418 164 q 502 190 469 164 q 550 266 535 217 q 565 381 565 315 q 550 495 565 446 q 502 572 535 544 q 418 599 469 599 q 304 538 340 599 q 268 381 268 478 q 284 265 268 314 q 334 190 300 217 q 418 164 368 164 z "},"r":{"ha":833,"x_min":50,"x_max":811,"o":"m 50 0 l 50 147 l 250 179 l 250 583 l 85 606 l 85 763 l 408 763 l 442 636 l 453 636 q 537 738 482 699 q 672 776 592 776 q 731 773 694 776 q 811 754 767 769 l 756 547 q 703 562 735 557 q 644 567 671 567 q 545 541 586 567 q 483 468 504 515 q 461 354 461 421 l 461 179 l 667 147 l 667 0 l 50 0 z "},"s":{"ha":833,"x_min":104,"x_max":725,"o":"m 372 -14 q 238 -4 304 -14 q 104 31 171 6 l 104 229 q 244 181 171 200 q 390 163 318 163 q 472 175 439 163 q 504 217 504 188 q 482 256 504 242 q 419 286 460 271 q 322 324 379 301 q 212 378 258 350 q 140 448 165 407 q 114 550 114 489 q 153 678 114 628 q 264 753 193 729 q 431 776 335 776 q 574 763 501 776 q 721 718 647 749 l 653 550 q 538 589 593 576 q 429 601 482 601 q 359 590 385 601 q 333 554 333 579 q 351 519 333 532 q 407 492 369 506 q 501 457 444 479 q 618 405 568 433 q 697 334 668 376 q 725 222 725 292 q 687 94 725 147 q 571 14 649 42 q 372 -14 493 -14 z "},"t":{"ha":833,"x_min":56,"x_max":739,"o":"m 529 -14 q 362 17 426 -14 q 267 110 297 47 q 238 271 238 174 l 238 583 l 56 583 l 56 706 l 257 763 l 292 944 l 457 944 l 457 763 l 733 763 l 733 583 l 457 583 l 457 299 q 476 214 457 242 q 525 178 496 186 q 583 169 554 169 q 651 176 617 169 q 739 194 685 182 l 739 21 q 631 -6 682 1 q 529 -14 581 -14 z "},"u":{"ha":833,"x_min":63,"x_max":764,"o":"m 319 -14 q 128 58 193 -14 q 63 265 63 131 l 63 763 l 283 763 l 283 328 q 309 208 283 250 q 400 165 335 165 q 490 194 460 165 q 532 275 521 224 q 543 393 543 326 l 543 763 l 764 763 l 764 0 l 597 0 l 565 97 l 553 97 q 495 36 529 61 q 417 -1 461 11 q 319 -14 374 -14 z "},"v":{"ha":833,"x_min":21,"x_max":813,"o":"m 296 0 l 21 763 l 257 763 l 383 328 q 403 256 396 288 q 417 189 411 225 l 421 189 q 433 254 426 225 q 451 326 440 283 l 579 763 l 813 763 l 532 0 l 296 0 z "},"x":{"ha":833,"x_min":21,"x_max":813,"o":"m 21 0 l 274 389 l 33 763 l 292 763 l 417 539 l 549 763 l 807 763 l 560 388 l 813 0 l 553 0 l 417 236 l 282 0 l 21 0 z "}}}
